<?xml version="1.0" encoding="utf-8"?>
<!-- Generator: Adobe Illustrator 24.0.1, SVG Export Plug-In . SVG Version: 6.00 Build 0)  -->
<svg version="1.1" id="Camada_1" xmlns="http://www.w3.org/2000/svg" xmlns:xlink="http://www.w3.org/1999/xlink" x="0px" y="0px"
	 viewBox="0 0 1080 1080" style="enable-background:new 0 0 1080 1080;" xml:space="preserve">
<style type="text/css">
	.st0{fill:#76C217;}
	.st1{fill:#C33800;}
</style>
<g>
	<g>
		<path class="st0" d="M622.9,508.6c0,44.3-35.9,80.2-80.2,80.2c-44.3,0-80.2-35.9-80.2-80.2s80.2-112.3,80.2-112.3
			S622.9,464.3,622.9,508.6z"/>
		<ellipse class="st0" cx="416.1" cy="395.4" rx="76.7" ry="24.1"/>
		<ellipse class="st0" cx="663.9" cy="395.4" rx="76.7" ry="24.1"/>
		<path class="st0" d="M745.4,192.6c0,0-10.7,61.5-55.3,106.1s-106.1,55.3-106.1,55.3s10.7-61.5,55.3-106.1S745.4,192.6,745.4,192.6
			z"/>
		<path class="st0" d="M334.6,192.6c0,0,10.7,61.5,55.3,106.1s106.1,55.3,106.1,55.3s-10.7-61.5-55.3-106.1S334.6,192.6,334.6,192.6
			z"/>
		<ellipse class="st0" cx="540" cy="167.2" rx="47.2" ry="156"/>
	</g>
	<g>
		<path class="st1" d="M280.1,839c-1.1-3.4-14.7-44.5-57.5-57.2c-31.8-9.5-65,1.1-85.1,21.9c-23.2,24-23.6,55.1-23.8,67.7
			c-0.2,20.1,5.3,36.2,7.5,42.4c1.1,3,7.6,21.4,17,32.5c24,28.1,91.3,37.5,128.5-0.6C306.3,905.4,281.2,842.6,280.1,839z
			 M255.3,932.8c-14.5,17-34.1,20.6-39.2,21.4c-6.1,1-31,5.1-48.1-10.7c-12-11.1-16-42.8-16-42.8c-0.4-12-4-36,8.3-62.8
			c5.9-12.8,15.8-23.4,28.7-29c5.7-2.5,12.4-4.3,20-4.4c22.6-0.4,37.5,14.4,41,17.8c18.1,17.9,19,41.4,19.6,55.3
			C270.2,892.1,271.1,914.3,255.3,932.8z"/>
		<path class="st1" d="M957.4,839c-1.1-3.4-14.7-44.5-57.5-57.2c-31.8-9.5-65,1.1-85.1,21.9c-23.2,24-23.6,55.1-23.8,67.7
			c-0.2,20.1,5.3,36.2,7.5,42.4c1.1,3,7.6,21.4,17,32.5c23.9,28.1,91.3,37.5,128.5-0.6C983.6,905.4,958.5,842.6,957.4,839z
			 M932.7,932.8c-14.5,17-34.1,20.6-39.2,21.4c-6.1,1-31,5.1-48.1-10.7c-12-11.1-16-42.8-16-42.8c-0.4-12-4-36,8.3-62.8
			c5.9-12.8,15.9-23.4,28.7-29c5.7-2.5,12.4-4.3,20-4.4c22.6-0.4,37.5,14.4,41,17.8c18.1,17.9,19,41.4,19.6,55.3
			C947.5,892.1,948.4,914.3,932.7,932.8z"/>
		<path class="st1" d="M348,799.5l-0.4,37.6l75.8,0.9c0,0,13.3-0.1,19,2c5.9,2.1,7.5,6.5,7.5,8.1c0,5.4-3.5,8.9-14.9,10.1
			c-2.8,0.3-39.9,1.2-54.2,1.4c-18.1,0.2-32.7,1-32.7,1s0.1,49.5-0.9,75.9c0,20.9-5.3,37.9-15,37.9c-9.8,0-20.3-10-20.3-49.1
			c0-18-7.2-108-3-132.4c1.9-8.8,9.6-14.9,20.1-15.8c7.8-0.6,97.3-2.2,118.3,0.1c7.9,1.5,8.7,6.6,8.7,9.6c0,5.1-4.2,9.8-13.3,10.9
			C433.6,798.9,348,799.5,348,799.5z"/>
		<path class="st1" d="M526.7,971.7c-2.3,0.8-5.7,0.4-8.2,0.6c-2.6,0.1-5.2,0.3-7.8,0.4c-10.8,0.4-21.5,0.4-32.3-0.1
			c-3.1-0.1-6.4-0.3-9.1-1.8c-2.8-1.5-4.9-4.6-4.3-7.6c0.7-3.6,4.6-5.5,8.1-6.7c2.4-0.8,4.8-1.6,7.2-2.2c1.6-0.5,4.4-0.6,5.5-2
			c2.1-2.7,0.8-8.9,0.7-12V940c-0.1-5.5-0.3-11-0.6-16.5c-0.4-8.2-0.7-16.4-1.1-24.6c-0.7-16.4-1.3-32.8-1.7-49.3
			c-0.2-7.8-0.7-15.7-0.5-23.5c0.1-6.8,1.2-13.7,0.7-20.5c-0.2-3.2-1.5-6.6-4.1-8.5c-2-1.5-4.5-2-7-2.3c-2.5-0.3-5-0.3-7.4-0.9
			c-2.4-0.6-4.8-2-5.9-4.2c-2.2-4.3,0.9-9.3,5-10.9c2.9-1.1,6-1.1,9.1-1.1c14.1,0.1,28.2,0.1,42.4,0.2c2.3,0,4.7,0,6.9,0.9
			c2.2,0.8,4.1,2.7,4.3,5c0.3,3.3-2,5.5-4.7,6.9c-2.7,1.4-6,1.6-8.3,3.7c-1.8,1.6-2.1,4.3-2.2,6.5c-0.1,4.9,1.6,9.5,2.3,14.2
			c1.9,12.1,1.8,24.5,2.5,36.7c0,11.6,1.1,23.2,1.5,34.7c0.5,11.9,0.2,24,0,35.9c-0.1,6.1-0.2,12.1-0.5,18.2c-0.2,5-0.8,10,3.3,13.7
			c3.5,3.2,9.4,3.9,11,8.4C532.5,966,530,970.5,526.7,971.7z"/>
		<path class="st1" d="M770.3,971.7c-2.3,0.8-5.7,0.4-8.2,0.6c-2.6,0.1-5.2,0.3-7.8,0.4c-10.8,0.4-21.5,0.4-32.3-0.1
			c-3.1-0.1-6.4-0.3-9.1-1.8c-2.8-1.5-4.9-4.6-4.3-7.6c0.7-3.6,4.6-5.5,8.1-6.7c2.4-0.8,4.8-1.6,7.2-2.2c1.6-0.5,4.4-0.6,5.5-2
			c2.1-2.7,0.8-8.9,0.7-12c0-0.1,0-0.2,0-0.2c-0.1-5.5-0.3-11-0.6-16.5c-0.4-8.2-0.7-16.4-1.1-24.6c-0.7-16.4-1.3-32.8-1.7-49.3
			c-0.2-7.8-0.7-15.7-0.5-23.5c0.1-6.8,1.2-13.7,0.7-20.5c-0.2-3.2-1.5-6.6-4.1-8.5c-2-1.5-4.5-2-7-2.3c-2.5-0.3-5-0.3-7.4-0.9
			c-2.4-0.6-4.8-2-5.9-4.2c-2.2-4.3,0.9-9.3,5-10.9c2.9-1.1,6-1.1,9.1-1.1c14.1,0.1,28.2,0.1,42.3,0.2c2.3,0,4.7,0,6.9,0.9
			c2.2,0.8,4.1,2.7,4.3,5c0.3,3.3-2,5.5-4.7,6.9c-2.7,1.4-6,1.6-8.3,3.7c-1.8,1.6-2.1,4.3-2.2,6.5c-0.1,4.9,1.6,9.5,2.3,14.2
			c1.9,12.1,1.8,24.5,2.5,36.7c0,11.6,1.1,23.2,1.5,34.7c0.4,11.9,0.2,24,0,35.9c-0.1,6.1-0.3,12.1-0.5,18.2c-0.2,5-0.8,10,3.3,13.7
			c3.5,3.2,9.5,3.9,11,8.4C776.1,966,773.6,970.5,770.3,971.7z"/>
		<path class="st1" d="M525.9,729.4c-2.7,8.3-10.9,13.7-17.4,18.9c-7.9,6.3-16.5,11.5-25.7,15.6c-4,1.8-8.4,3.4-12.8,2.9
			c-4.4-0.5-8.8-3.8-9-8.2c-0.3-4.8,4-8.6,7.9-11.5c12-8.8,24.3-17.3,36.8-25.6c2.5-1.8,5.1-3.7,8.1-4.7c3-1,6.4-1,9,0.8
			C526.3,720,527.2,725.2,525.9,729.4z"/>
		<path class="st1" d="M693.1,933.6c-7.2,15.6-21.1,27.6-36.6,34.6c-27.1,12.3-63,10.3-83.9-12.8c-26.7-29.5-30.8-73.4-22.6-110.9
			c2.3-10.6,5.4-20.2,11.2-29.7c5.5-9.1,12.6-17.2,21.1-23.6c12.2-9.2,26.8-15.7,42.2-16.4c17.6-0.7,36,7.1,45.2,22
			c2.7,4.4,4.4,10.6,0.6,14.2c-3.5,3.3-9.4,1.7-13-1.5c-3.6-3.2-5.8-7.7-9.3-11c-8.3-8-22.3-7.5-32.1-1.4
			c-9.8,6.2-15.9,16.7-20.1,27.5c-11.2,29-10.6,61.6-3,91.8c3.9,15.5,11,32,25.7,38.3c10.4,4.5,21.9,2.7,31.7-2.4
			c8.4-4.4,17-10.6,21.6-19.1c3.2-5.9,7.4-15.9,15.6-15.2C696.9,918.8,696.2,926.8,693.1,933.6z"/>
	</g>
	<g>
		<g>
			<path d="M381.4,1054.6h-24l-4.6,12.6h-7.6l20.2-53.7h8l20.2,53.7H386L381.4,1054.6z M379.4,1049.1l-10-27.6l-10,27.6H379.4z"/>
			<path d="M453.5,1067.2l-14.3-22.3h-7.7v22.3h-7.1v-54.7h18c6.2,0,10.9,1.5,14,4.5s4.7,6.9,4.7,11.8c0,4.4-1.2,8-3.7,10.7
				c-2.5,2.7-6.1,4.4-10.8,5.1l14.9,22.6H453.5z M431.5,1039.8h10.3c8,0,12-3.5,12-10.5c0-7-4-10.5-12-10.5h-10.3V1039.8z"/>
			<path d="M526.9,1012.6v5.7h-15.4v48.9h-7.1v-48.9H489v-5.7H526.9z"/>
			<path d="M564.6,1018.3v18.7h20.8v5.4h-20.8v19.1h23.1v5.7h-30.2v-54.7h30.2v5.7H564.6z"/>
			<path d="M653.3,1060.3c-1.2,2.2-3.1,4-5.7,5.4s-5.7,2.1-9.4,2.1c-3.6,0-6.8-0.7-9.7-2c-2.8-1.3-5.1-3.1-6.7-5.4
				c-1.7-2.3-2.7-4.9-2.9-7.9h7.5c0.2,1.6,0.7,3.1,1.6,4.5s2.2,2.7,3.9,3.6c1.7,1,3.7,1.4,6.1,1.4c3.1,0,5.5-0.8,7.1-2.5
				c1.7-1.7,2.5-3.8,2.5-6.4c0-2.2-0.6-4-1.7-5.4c-1.2-1.4-2.6-2.5-4.3-3.3c-1.7-0.8-4-1.7-7-2.6c-3.5-1.1-6.2-2.2-8.3-3.2
				c-2.1-1-3.9-2.5-5.4-4.5c-1.5-2-2.2-4.7-2.2-8c0-2.8,0.7-5.4,2.1-7.5s3.3-3.9,5.9-5c2.6-1.2,5.6-1.8,9-1.8
				c5.4,0,9.6,1.3,12.8,3.9c3.2,2.6,5,5.9,5.5,10h-7.6c-0.4-2.2-1.5-4.1-3.3-5.7c-1.8-1.7-4.3-2.5-7.4-2.5c-2.8,0-5.1,0.7-6.8,2.2
				c-1.7,1.5-2.6,3.6-2.6,6.2c0,2.1,0.6,3.8,1.7,5.2c1.1,1.3,2.5,2.4,4.1,3.1c1.7,0.8,3.9,1.6,6.8,2.5c3.5,1.1,6.3,2.2,8.5,3.3
				c2.1,1,4,2.6,5.5,4.7c1.5,2.1,2.2,4.9,2.2,8.3C655.1,1055.6,654.5,1058,653.3,1060.3z"/>
			<path d="M720.3,1054.6h-24l-4.6,12.6h-7.6l20.2-53.7h8l20.2,53.7h-7.6L720.3,1054.6z M718.3,1049.1l-10-27.6l-10,27.6H718.3z"/>
			<path d="M805.9,1067.2h-7.1l-28.4-43.2v43.2h-7.1v-54.7h7.1l28.4,43.3v-43.3h7.1V1067.2z"/>
			<path d="M848,1012.6v54.7h-7.1v-54.7H848z"/>
			<path d="M915,1054.6h-24l-4.6,12.6h-7.6l20.2-53.7h8l20.2,53.7h-7.6L915,1054.6z M913,1049.1l-10-27.6l-10,27.6H913z"/>
		</g>
		<g>
			<path d="M195.5,1054.3c-2.2,4.1-5.5,7.3-9.8,9.5c-4.3,2.2-9.5,3.4-15.5,3.4h-17.4v-54.7h17.4c6,0,11.2,1.1,15.5,3.3
				c4.3,2.2,7.6,5.3,9.8,9.5c2.2,4.1,3.3,9,3.3,14.5C198.8,1045.4,197.7,1050.2,195.5,1054.3z M186,1055.4c3.8-3.7,5.7-8.8,5.7-15.5
				s-1.9-11.9-5.6-15.5c-3.7-3.7-9.2-5.5-16.4-5.5h-9.8v42.1h9.8C176.7,1060.9,182.2,1059,186,1055.4z"/>
			<path d="M257.1,1054.6h-24l-4.6,12.6h-7.6l20.2-53.7h8l20.2,53.7h-7.6L257.1,1054.6z M255.1,1049.1l-10-27.6l-10,27.6H255.1z"/>
		</g>
	</g>
</g>
</svg>
